<?xml version="1.0" standalone="no"?>
<!DOCTYPE svg PUBLIC "-//W3C//DTD SVG 20010904//EN"
 "http://www.w3.org/TR/2001/REC-SVG-20010904/DTD/svg10.dtd">
<svg version="1.0" xmlns="http://www.w3.org/2000/svg"
 width="500.000000pt" height="500.000000pt" viewBox="0 0 500.000000 500.000000"
 preserveAspectRatio="xMidYMid meet">

<g transform="translate(0.000000,500.000000) scale(0.100000,-0.100000)"
fill="#5271ff" stroke="none">
<path d="M2205 3889 c-409 -56 -758 -378 -838 -774 l-13 -68 -70 -17 c-435
-111 -612 -310 -591 -665 18 -301 155 -470 418 -520 196 -36 500 31 749 167
187 102 298 193 465 381 l132 149 -399 199 -400 200 35 42 c52 63 72 62 392
-23 l268 -71 31 29 c17 15 58 54 91 85 34 32 69 57 81 57 25 0 104 -81 104
-107 0 -9 -23 -39 -51 -66 -28 -27 -49 -50 -47 -51 5 -4 95 -26 107 -26 6 0
79 82 162 183 173 210 208 237 302 237 179 0 269 -196 154 -336 -17 -20 -109
-102 -205 -181 -126 -105 -172 -149 -168 -161 3 -9 10 -36 17 -60 l12 -43 52
51 c28 28 60 50 72 50 24 0 103 -81 103 -106 0 -9 -38 -56 -85 -103 -47 -48
-85 -93 -85 -100 0 -6 32 -132 70 -279 39 -147 70 -280 70 -296 0 -20 -12 -40
-39 -67 -21 -22 -43 -39 -47 -39 -5 0 -98 178 -207 396 l-198 397 -27 -25
c-15 -14 -80 -71 -144 -127 -189 -165 -259 -274 -266 -413 -4 -66 0 -85 21
-132 32 -69 95 -133 178 -179 149 -83 313 -102 844 -94 381 5 403 8 535 59
145 57 301 183 385 313 159 243 177 545 50 810 -32 67 -34 76 -34 180 1 233
-74 425 -230 588 -211 222 -502 310 -798 240 l-73 -17 -68 66 c-172 166 -395
262 -636 272 -61 3 -142 0 -181 -5z"/>
</g>
</svg>
