<?xml version="1.0" standalone="no"?>
<!DOCTYPE svg PUBLIC "-//W3C//DTD SVG 20010904//EN"
 "http://www.w3.org/TR/2001/REC-SVG-20010904/DTD/svg10.dtd">
<svg version="1.0" xmlns="http://www.w3.org/2000/svg"
 width="460.000000pt" height="373.000000pt" viewBox="0 0 460.000000 373.000000"
 preserveAspectRatio="xMidYMid meet" fill="#5271ff">

<g transform="translate(0.000000,373.000000) scale(0.100000,-0.100000)"
 stroke="none">
<path d="M2035 3210 c-151 -30 -277 -100 -395 -219 -71 -71 -94 -103 -133
-181 -26 -52 -54 -126 -62 -165 l-16 -70 -77 -18 c-94 -23 -231 -85 -287 -132
-54 -44 -99 -114 -120 -189 -24 -83 -17 -258 14 -337 63 -164 179 -234 386
-232 139 0 263 32 411 102 175 84 277 163 427 332 l86 96 -302 148 c-166 82
-304 150 -306 152 -3 2 11 19 29 38 24 25 43 35 64 35 17 0 123 -25 236 -55
l205 -54 65 64 c36 36 72 65 81 65 19 0 79 -61 79 -80 0 -8 -16 -31 -36 -51
l-37 -38 43 -11 c50 -14 33 -28 179 148 56 67 114 130 128 139 14 9 49 19 79
21 46 4 60 1 93 -21 69 -46 91 -134 50 -207 -13 -22 -80 -86 -164 -156 l-142
-118 10 -35 c6 -20 12 -38 14 -40 1 -2 21 13 43 33 22 20 44 36 48 36 14 0 82
-75 82 -90 0 -8 -29 -44 -65 -80 l-66 -66 56 -210 c30 -116 55 -221 55 -233 0
-22 -52 -81 -71 -81 -5 0 -76 135 -158 299 l-149 299 -99 -87 c-124 -110 -166
-157 -198 -221 -88 -173 4 -328 236 -397 82 -24 722 -31 829 -9 210 44 378
189 457 392 21 56 27 91 31 184 5 130 -10 204 -58 300 -25 49 -28 64 -23 117
12 130 -54 325 -146 436 -84 101 -208 179 -336 212 -70 18 -228 18 -300 1
l-50 -12 -70 64 c-82 75 -230 152 -342 176 -75 17 -238 20 -308 6z"/>
<path d="M1546 1150 c-154 -47 -210 -265 -98 -383 91 -96 250 -99 343 -6 88
88 87 253 -3 336 -57 53 -163 76 -242 53z m147 -121 c35 -27 51 -87 37 -138
-27 -100 -148 -123 -201 -39 -16 26 -19 45 -16 87 3 46 9 59 36 83 40 35 104
39 144 7z"/>
<path d="M2062 1147 c-93 -34 -146 -114 -147 -223 0 -61 4 -77 30 -120 19 -30
49 -60 79 -79 43 -26 59 -30 120 -30 53 1 81 6 113 23 139 73 166 261 54 373
-65 65 -162 87 -249 56z m159 -125 c60 -54 48 -171 -21 -207 -100 -52 -198 46
-160 159 25 78 120 103 181 48z"/>
<path d="M2450 925 l0 -230 60 0 60 0 0 103 c0 62 4 101 9 97 5 -3 40 -48 76
-99 l67 -94 74 -4 c41 -2 74 -3 74 -2 0 0 -38 52 -85 114 -47 62 -85 118 -85
123 0 5 36 56 80 113 44 57 80 105 80 106 0 2 -31 2 -70 0 l-70 -4 -66 -94
c-37 -52 -71 -94 -76 -94 -4 0 -8 44 -8 98 l0 97 -60 0 -60 0 0 -230z"/>
<path d="M3310 1002 c80 -153 80 -154 80 -230 l0 -77 60 3 60 4 0 65 c0 63 4
73 83 227 l83 161 -68 0 -68 0 -38 -87 c-20 -48 -41 -88 -47 -88 -5 0 -27 40
-48 88 l-37 87 -70 0 -69 0 79 -153z"/>
<path d="M960 926 l0 -226 140 0 c151 0 183 8 214 52 25 36 20 101 -10 137
-14 17 -32 31 -40 31 -8 0 -14 5 -14 10 0 6 5 10 10 10 6 0 22 12 35 26 37 39
35 103 -4 146 l-29 33 -151 3 -151 3 0 -225z m228 122 c7 -7 12 -21 12 -33 0
-33 -20 -45 -77 -45 l-53 0 2 45 1 45 52 0 c28 0 56 -5 63 -12z m0 -174 c25
-17 29 -56 8 -73 -8 -7 -37 -11 -68 -9 l-53 3 -1 40 c0 22 2 43 4 48 6 13 87
7 110 -9z"/>
<path d="M2938 926 l-3 -225 133 -3 132 -3 0 45 0 45 -72 0 -73 0 0 183 0 182
-57 0 -57 0 -3 -224z"/>
</g>
</svg>
